<svg height="644" viewBox="0 0 2000 644" width="2000" xmlns="http://www.w3.org/2000/svg"><g fill="#231f20" transform="matrix(.13333333 0 0 -.13333333 0 644)"><path d="m4302.56 2833.7c2.4 49.49-15.6 97.74-49.64 133.6-34.18 35.86-81.55 56.04-131.04 56.04h-403.12c49.19 83.31 77.98 180.03 77.98 283.53 0 308.37-250.86 559.24-559.17 559.24-230.02 0-427.9-139.72-513.69-338.62l-483.65 483.66c-33.97 33.96-80.1 52.98-128.06 52.98h-2.63c-48.97-.8-95.55-21.35-129-57.06-177.62-188.99-414.71-645.32-40.89-1019.15l165.67-165.81c8.01-11.8 17.85-28.93 22.44-39.65-2.55-2.77-5.68-6.19-9.54-10.2-49.93-52.77-85.93-86.37-86.3-86.66-5.32-4.96-11.66-11.88-16.4-17.42l-2.91-3.5c-12.68-14.72-38.34-44.46-68.95-88.48l-7.87.51h-449.55c-556.552 0-718.353-490.44-726.15-749.69-1.531-48.9 16.906-96.35 50.949-131.41 34.109-35.2 80.899-54.95 129.801-54.95h885.11c47.67-109.55 117.35-211.95 206.48-301.09l3.43-3.42c330.89-330.75 523.16-523.17 523.16-523.17 33.97-33.89 79.96-52.98 127.91-52.98h.73c48.18.141 94.39 19.531 128.21 53.93 192.56 195.55 360.41 588.47 112.46 937.51-8.46 17.93-19.25 35.06-33.9 49.93-3.42 3.57-45.69 45.84-52.98 52.99l-.29.29-.44.43-141.18 141.25c-2.99 3.06-5.46 5.69-7.58 8.09 1.53 3.79 3.5 8.17 5.98 13.12 3.79 7.66 8.45 15.38 12.61 21.65 9.62 10.13 28.42 29.74 54.81 56.49 13.41-3.28 27.11-5.47 41.25-5.54 114.94-1.17 220.69-2.85 223.76-2.85h553.04c540.15 0 706.61 488.26 719.15 746.41m-2382.71-440.26c-22.66-45.69-42.05-93.36-58.16-142.85-43.51-138.19-52.33-276.01-26.38-410.63 1.31-6.92 3.28-13.85 4.74-20.84h-915.144s17.282 574.32 545.324 574.32zm963.32 447.8c6.19-63.19 4.73-131.55-8.89-204.29-23.55-126.02-88.49-255.46-190.45-366.46-9.26-10.06-18.29-20.19-28.13-29.88-56.56-56.64-85.64-88.12-85.64-88.12-9.26-12.61-22.6-32.72-34.04-55.47-24.12-47.3-34.26-96.2-26.89-129.07 5.32-23.18 13.7-50.66 60.71-99.05 66.98-66.98 112.53-112.54 142.85-142.86l.22-.14 1.75-1.82c373.97-376.67-27.7-784.529-27.7-784.529s-192.27 192.409-523.24 523.239l-3.35 3.42c-105.46 105.47-174.99 230.32-206.19 354.07-3.28 12.98-6.56 25.95-8.96 38.85-26.53 137.68-7.87 263.48 23.47 362.96 20.7 63.63 45.77 118.37 70.69 164.07 53.14 97.37 105.91 153.49 115.75 165.66 0 0 39.21 36.52 94.45 94.9 44.17 45.11 54.01 72.44 59.77 94.53 5.03 22.01 4.3 45.26-3.14 74.7-11.29 49.2-49.77 105.9-63.19 123.04l-175.43 175.5c-348.68 348.6 44.68 767.47 44.68 767.47l547.29-547.21 4.74-5.18c11.44-12.97 73.24-80.68 132.13-196.64 37.25-74.42 75.37-173.98 86.74-291.69m732.7 496.27c0-209.03-169.45-378.41-378.34-378.41-208.96 0-378.34 169.38-378.34 378.41 0 208.96 169.38 378.35 378.34 378.35 208.89 0 378.34-169.39 378.34-378.35m506.11-496.27s-28.06-574.4-538.54-574.4h-553.05s-106.41 1.75-222 2.85c81.26 106.26 137.09 227.1 159.91 349.62 13.84 73.83 17.12 147.88 10.86 221.93h51.23z"/><path d="m6103.37 2414.32c0-123.27 6.78-243.76 23.77-327.78h-377l-27.21 151.27h-10.14c-101.89-106.41-275.11-182.05-489.1-182.05-332.88 0-519.67 198.9-519.67 406.18 0 344.55 370.15 518.21 981.57 515.44v22.39c0 89.64-44.13 238.14-336.24 238.14-163.08 0-332.87-42.01-444.98-100.87l-81.47 224.13c122.24 61.63 336.24 120.49 597.79 120.49 529.87 0 682.68-277.38 682.68-574.3zm-407.57 338.93c-295.54 5.62-577.43-47.56-577.43-254.91 0-134.42 105.32-196.05 237.77-196.05 166.44 0 288.68 89.64 326.09 187.66 10.14 25.24 13.57 53.24 13.57 75.64z"/><path d="m6381.9 2086.55h421.13v1988.96h-421.13z"/><path d="m8375.64 2414.32c0-123.27 6.79-243.76 23.78-327.78h-377l-27.21 151.27h-10.14c-101.89-106.41-275.18-182.05-489.18-182.05-332.88 0-519.59 198.9-519.59 406.18 0 344.55 370.15 518.21 981.57 515.44v22.39c0 89.64-44.13 238.14-336.31 238.14-163.01 0-332.81-42.01-444.91-100.87l-81.54 224.13c122.31 61.63 336.31 120.49 597.78 120.49 529.88 0 682.75-277.38 682.75-574.3zm-407.56 338.93c-295.54 5.62-577.43-47.56-577.43-254.91 0-134.42 105.24-196.05 237.77-196.05 166.44 0 288.68 89.64 326.02 187.66 10.28 25.24 13.64 53.24 13.64 75.64z"/><path d="m9870.14 2128.57c-88.33-33.62-261.55-72.86-468.76-72.86-516.24 0-852.48 274.6-852.48 697.55 0 409.03 339.59 728.34 920.38 728.34 152.87 0 309.18-28.01 404.28-64.4l-74.76-257.76c-67.97 25.24-166.44 53.25-315.88 53.25-319.31 0-509.53-193.28-506.03-442.58 0-280.14 220.7-439.8 506.03-439.8 146.02 0 247.91 25.16 329.45 53.17z"/><path d="m10016.2 3010.99c0 184.89-3.4 316.54-13.6 439.8h363.4l13.6-260.52h13.6c81.5 193.28 275.1 291.37 451.7 291.37 40.8 0 64.6-2.84 98.5-8.46v-324.92c-33.9 5.61-71.3 11.23-122.3 11.23-200.3 0-336.2-106.49-373.5-260.53-6.8-30.85-13.6-67.25-13.6-106.49v-705.94h-417.8z"/><path d="m11507.2 3831.78c0-103.64-91.7-184.89-237.7-184.89-139.3 0-231 81.25-231 184.89 0 106.49 95.1 187.74 234.3 187.74 142.7 0 231-81.25 234.4-187.74m-444.9-380.94h421.2v-1364.27h-421.2z"/><path d="m12247.7 3800.97v-350.16h397.4v-257.69h-397.4v-602.3c0-165.27 54.4-252.14 213.9-252.14 78.2 0 115.6 5.62 163.1 16.85l6.8-263.37c-61.1-19.62-169.9-36.4-302.3-36.4-152.9 0-281.9 44.79-360 114.8-88.3 78.48-129.1 201.75-129.1 381.02v641.54h-237.8v257.69h237.8v252.14z"/><path d="m13144.3 3450.82 298.9-731.18c34-84.02 67.9-187.66 91.8-266.14h10.1c27.2 78.48 57.8 179.35 88.3 268.98l258.2 728.34h448.4l-414.5-930c-227.5-509.9-380.4-736.8-577.4-876.84-163.1-120.49-332.9-165.27-438.2-176.5l-95.1 291.38c71.3 14 159.7 44.78 244.6 95.18 78.1 42.08 169.9 123.26 227.5 215.74 17.1 25.17 27.2 44.78 27.2 61.56 0 14.08-3.3 33.7-23.8 67.32l-604.4 1252.16z"/><path d="m4777.03 765.301v482.869h-78.78v77.58h78.78v26.63c0 78.7 17.38 150.47 64.82 195.67 38.2 37.07 89.22 52.07 136.66 52.07 35.88 0 67.14-8.06 86.83-16.19l-13.87-78.77c-15.07 7.01-35.95 12.76-64.9 12.76-86.83 0-108.84-76.39-108.84-162.1v-30.07h135.54v-77.58h-135.54v-482.869z"/><path d="m5596.86 1050.15c0-207.298-143.6-297.568-279.07-297.568-151.65 0-268.62 111.148-268.62 288.318 0 187.54 122.78 297.57 277.95 297.57 160.9 0 269.74-116.97 269.74-288.32m-444.6-5.81c0-122.719 70.57-215.371 170.16-215.371 97.27 0 170.23 91.461 170.23 217.681 0 94.96-47.45 215.36-167.92 215.36-120.4 0-172.47-111.15-172.47-217.67"/><path d="m6194.42 918.148c0-57.886 1.12-108.839 4.62-152.847h-90.33l-5.75 91.449h-2.31c-26.63-45.129-85.71-104.211-185.3-104.211-88.02 0-193.36 48.641-193.36 245.5v327.701h101.9v-310.32c0-106.529 32.45-178.291 125.03-178.291 68.33 0 115.78 47.453 134.35 92.582 5.74 15.07 9.25 33.57 9.25 52.141v343.888h101.9z"/><path d="m6363.53 1174.04c0 57.89-1.12 105.34-4.62 151.66h90.33l5.75-92.65h2.31c27.83 53.27 92.65 105.41 185.3 105.41 77.58 0 197.98-46.33 197.98-238.49v-334.65h-101.9v323.01c0 90.34-33.57 165.61-129.65 165.61-67.21 0-119.28-47.45-136.66-104.21-4.62-12.76-6.94-30.14-6.94-47.45v-336.96h-101.9z"/><path d="m7490.24 1587.4v-677.341c0-49.829 1.19-106.528 4.62-144.719h-91.45l-4.63 97.199h-2.31c-31.26-62.508-99.59-109.957-191.05-109.957-135.46 0-239.75 114.59-239.75 284.818-1.12 186.42 114.66 301.07 251.32 301.07 85.64 0 143.53-40.51 169.04-85.71h2.31v334.64zm-101.9-489.8c0 12.75-1.12 30.13-4.63 42.89-15.06 64.82-70.64 118.09-147.03 118.09-105.4 0-167.92-92.65-167.92-216.56 0-113.461 55.58-207.231 165.61-207.231 68.26 0 130.84 45.133 149.34 121.59 3.51 13.883 4.63 27.75 4.63 43.941z"/><path d="m7969.68 765.301-8.13 70.648h-3.44c-31.25-44.019-91.45-83.398-171.35-83.398-113.53 0-171.42 79.89-171.42 160.98 0 135.469 120.47 209.539 336.96 208.419v11.57c0 46.32-12.69 129.65-127.34 129.65-52.14 0-106.53-16.19-145.91-41.63l-23.13 67.14c46.32 30.13 113.46 49.76 184.11 49.76 171.35 0 213.05-116.9 213.05-229.24v-209.618c0-48.57 2.31-96.082 9.25-134.281zm-15.07 286.009c-111.15 2.31-237.37-17.38-237.37-126.22 0-66.02 44.01-97.27 96.15-97.27 72.89 0 119.21 46.321 135.47 93.77 3.44 10.441 5.75 22 5.75 32.441z"/><path d="m8335.64 1486.67v-160.98h145.91v-77.58h-145.91v-302.188c0-69.453 19.69-108.84 76.46-108.84 26.56 0 46.25 3.508 59.01 6.938l4.62-76.391c-19.69-8.129-50.95-13.879-90.26-13.879-47.52 0-85.71 15-110.03 42.82-28.94 30.071-39.39 79.899-39.39 145.918v305.622h-86.83v77.58h86.83v134.35z"/><path d="m8709.69 1483.2c1.19-34.76-24.32-62.51-64.83-62.51-35.95 0-61.39 27.75-61.39 62.51 0 35.89 26.63 63.71 63.71 63.71 38.19 0 62.51-27.82 62.51-63.71m-113.46-157.47h101.9v-560.449h-101.9z"/><path d="m9374.34 1050.15c0-207.298-143.53-297.568-279.06-297.568-151.66 0-268.63 111.148-268.63 288.318 0 187.54 122.78 297.57 277.88 297.57 160.97 0 269.81-116.97 269.81-288.32m-444.6-5.81c0-122.719 70.64-215.371 170.16-215.371 97.27 0 170.23 91.461 170.23 217.681 0 94.96-47.45 215.36-167.92 215.36-120.4 0-172.47-111.15-172.47-217.67"/><path d="m9502.95 1174.04c0 57.89-1.19 105.34-4.62 151.66h90.26l5.82-92.65h2.31c27.82 53.27 92.65 105.41 185.3 105.41 77.51 0 197.98-46.33 197.98-238.49v-334.65h-101.9v323.01c0 90.34-33.57 165.61-129.65 165.61-67.21 0-119.28-47.45-136.66-104.21-4.63-12.76-6.94-30.14-6.94-47.45v-336.96h-101.9z"/></g></svg>